<svg width="20" height="20" viewBox="0 0 20 20" fill="none" xmlns="http://www.w3.org/2000/svg">
<g id="license">
<path id="Vector" d="M10.4412 1.66675C13.7687 1.66675 15.4325 1.66675 16.4663 2.64306C17.5 3.61937 17.5 5.19071 17.5 8.33341V11.6667C17.5 14.8094 17.5 16.3808 16.4663 17.3571C15.4325 18.3334 13.7687 18.3334 10.4412 18.3334H9.55883C6.23126 18.3334 4.56748 18.3334 3.53374 17.3571C2.5 16.3808 2.5 14.8094 2.5 11.6667V8.33341C2.5 5.19071 2.5 3.61937 3.53374 2.64306C4.56748 1.66675 6.23127 1.66675 9.55883 1.66675H10.4412Z" stroke="#008080" stroke-width="1.5" stroke-linecap="round"/>
<path id="Vector_2" d="M6.66675 5.83325H13.3334" stroke="#008080" stroke-width="1.5" stroke-linecap="round"/>
<path id="Vector_3" d="M6.66675 10H13.3334" stroke="#008080" stroke-width="1.5" stroke-linecap="round"/>
<path id="Vector_4" d="M6.66675 14.1667H10.0001" stroke="#008080" stroke-width="1.5" stroke-linecap="round"/>
</g>
</svg>
