<svg width="20" height="20" viewBox="0 0 20 20" fill="none" xmlns="http://www.w3.org/2000/svg">
<g id="marketing">
<path id="Vector" d="M15.0001 15.0001C16.841 15.0001 18.3334 12.0153 18.3334 8.33341C18.3334 4.65152 16.841 1.66675 15.0001 1.66675C13.1591 1.66675 11.6667 4.65152 11.6667 8.33341C11.6667 12.0153 13.1591 15.0001 15.0001 15.0001Z" stroke="#008080" stroke-width="1.5"/>
<path id="Vector_2" d="M15.0001 1.66675C12.4142 1.66675 7.05435 3.64809 3.97596 4.87818C2.56626 5.44148 1.66675 6.81535 1.66675 8.33341C1.66675 9.8515 2.56626 11.2253 3.97596 11.7887C7.05435 13.0187 12.4142 15.0001 15.0001 15.0001" stroke="#008080" stroke-width="1.5"/>
<path id="Vector_3" d="M9.16667 18.3333L7.54728 17.4419C5.78414 16.4714 4.78878 14.5112 5.03789 12.5" stroke="#008080" stroke-width="1.5" stroke-linecap="round" stroke-linejoin="round"/>
</g>
</svg>
